<svg xmlns="http://www.w3.org/2000/svg" xmlns:xlink="http://www.w3.org/1999/xlink" contentStyleType="text/css" height="506px" preserveAspectRatio="none" style="width:1005px;height:506px;background:#FEFEFE;" version="1.1" viewBox="0 0 1005 506" width="1005px" zoomAndPan="magnify"><defs/><g><rect fill="#FEFEFE" height="506" style="stroke:none;stroke-width:1;" width="1005" x="0" y="0"/><!--cluster Learning Caf? Environment--><g id="cluster_Learning Caf&#233; Environment"><path d="M8.5,43.73 L224.7637,43.73 A3.75,3.75 0 0 1 227.2637,46.23 L234.2637,66.0269 L995.5,66.0269 A2.5,2.5 0 0 1 998,68.5269 L998,205.23 A2.5,2.5 0 0 1 995.5,207.73 L8.5,207.73 A2.5,2.5 0 0 1 6,205.23 L6,46.23 A2.5,2.5 0 0 1 8.5,43.73 " fill="none" style="stroke:#000000;stroke-width:1.5;"/><line style="stroke:#000000;stroke-width:1.5;" x1="6" x2="234.2637" y1="66.0269" y2="66.0269"/><text fill="#000000" font-family="sans-serif" font-size="14" font-weight="bold" lengthAdjust="spacing" textLength="215.2637" x="10" y="58.7251">Learning Caf&#233; Environment</text></g><!--cluster Public Wi-Fi Network--><g id="cluster_Public Wi-Fi Network"><rect fill="none" height="97" rx="2.5" ry="2.5" style="stroke:#181818;stroke-width:1;" width="382" x="592" y="86.73"/><path d="M766.9785,86.73 L766.9785,96.0269 L756.9785,106.0269 L592,106.0269 " fill="none" style="stroke:#181818;stroke-width:1;"/><text fill="#000000" font-family="sans-serif" font-size="14" font-weight="bold" lengthAdjust="spacing" textLength="164.9785" x="595" y="100.7251">Public Wi-Fi Network</text></g><!--cluster Learning Caf? VLAN--><g id="cluster_Learning Caf&#233; VLAN"><rect fill="none" height="97" rx="2.5" ry="2.5" style="stroke:#181818;stroke-width:1;" width="220" x="348" y="86.73"/><path d="M514.8848,86.73 L514.8848,96.0269 L504.8848,106.0269 L348,106.0269 " fill="none" style="stroke:#181818;stroke-width:1;"/><text fill="#000000" font-family="sans-serif" font-size="14" font-weight="bold" lengthAdjust="spacing" textLength="156.8848" x="351" y="100.7251">Learning Caf&#233; VLAN</text></g><!--cluster Cloud-Hosted Services--><g id="cluster_Cloud-Hosted Services"><path d="M46.5,402.73 L225.2754,402.73 A3.75,3.75 0 0 1 227.7754,405.23 L234.7754,425.0269 L901.5,425.0269 A2.5,2.5 0 0 1 904,427.5269 L904,497.23 A2.5,2.5 0 0 1 901.5,499.73 L46.5,499.73 A2.5,2.5 0 0 1 44,497.23 L44,405.23 A2.5,2.5 0 0 1 46.5,402.73 " fill="none" style="stroke:#000000;stroke-width:1.5;"/><line style="stroke:#000000;stroke-width:1.5;" x1="44" x2="234.7754" y1="425.0269" y2="425.0269"/><text fill="#000000" font-family="sans-serif" font-size="14" font-weight="bold" lengthAdjust="spacing" textLength="177.7754" x="48" y="417.7251">Cloud-Hosted Services</text></g><!--cluster University Main Network--><g id="cluster_University Main Network"><path d="M408.5,256.73 L604.6729,256.73 A3.75,3.75 0 0 1 607.1729,259.23 L614.1729,279.0269 L651.5,279.0269 A2.5,2.5 0 0 1 654,281.5269 L654,351.23 A2.5,2.5 0 0 1 651.5,353.73 L408.5,353.73 A2.5,2.5 0 0 1 406,351.23 L406,259.23 A2.5,2.5 0 0 1 408.5,256.73 " fill="none" style="stroke:#000000;stroke-width:1.5;"/><line style="stroke:#000000;stroke-width:1.5;" x1="406" x2="614.1729" y1="279.0269" y2="279.0269"/><text fill="#000000" font-family="sans-serif" font-size="14" font-weight="bold" lengthAdjust="spacing" textLength="195.1729" x="410" y="271.7251">University Main Network</text></g><!--entity workstations--><g id="elem_workstations"><polygon fill="#F1F1F1" points="151,131.73,161,121.73,328.874,121.73,328.874,158.0269,318.874,168.0269,151,168.0269,151,131.73" style="stroke:#181818;stroke-width:0.5;"/><line style="stroke:#181818;stroke-width:0.5;" x1="318.874" x2="328.874" y1="131.73" y2="121.73"/><line style="stroke:#181818;stroke-width:0.5;" x1="151" x2="318.874" y1="131.73" y2="131.73"/><line style="stroke:#181818;stroke-width:0.5;" x1="318.874" x2="318.874" y1="131.73" y2="168.0269"/><text fill="#000000" font-family="sans-serif" font-size="14" lengthAdjust="spacing" textLength="137.874" x="166" y="154.7251">Public Workstations</text></g><!--entity printers--><g id="elem_printers"><polygon fill="#F1F1F1" points="22,131.73,32,121.73,116.1133,121.73,116.1133,158.0269,106.1133,168.0269,22,168.0269,22,131.73" style="stroke:#181818;stroke-width:0.5;"/><line style="stroke:#181818;stroke-width:0.5;" x1="106.1133" x2="116.1133" y1="131.73" y2="121.73"/><line style="stroke:#181818;stroke-width:0.5;" x1="22" x2="106.1133" y1="131.73" y2="131.73"/><line style="stroke:#181818;stroke-width:0.5;" x1="106.1133" x2="106.1133" y1="131.73" y2="168.0269"/><text fill="#000000" font-family="sans-serif" font-size="14" lengthAdjust="spacing" textLength="54.1133" x="37" y="154.7251">Printers</text></g><!--entity wifi--><g id="elem_wifi"><polygon fill="#F1F1F1" points="607.5,131.73,617.5,121.73,774.5596,121.73,774.5596,158.0269,764.5596,168.0269,607.5,168.0269,607.5,131.73" style="stroke:#181818;stroke-width:0.5;"/><line style="stroke:#181818;stroke-width:0.5;" x1="764.5596" x2="774.5596" y1="131.73" y2="121.73"/><line style="stroke:#181818;stroke-width:0.5;" x1="607.5" x2="764.5596" y1="131.73" y2="131.73"/><line style="stroke:#181818;stroke-width:0.5;" x1="764.5596" x2="764.5596" y1="131.73" y2="168.0269"/><text fill="#000000" font-family="sans-serif" font-size="14" lengthAdjust="spacing" textLength="127.0596" x="622.5" y="154.7251">Wi-Fi Access Point</text></g><!--entity ISP--><g id="elem_ISP"><ellipse cx="949" cy="144.73" fill="#F1F1F1" rx="8" ry="8" style="stroke:#181818;stroke-width:0.5;"/><text fill="#000000" font-family="sans-serif" font-size="14" lengthAdjust="spacing" textLength="21.458" x="938.271" y="174.7251">ISP</text></g><!--entity cafe_switch--><g id="elem_cafe_switch"><polygon fill="#F1F1F1" points="364,131.73,374,121.73,552.3535,121.73,552.3535,158.0269,542.3535,168.0269,364,168.0269,364,131.73" style="stroke:#181818;stroke-width:0.5;"/><line style="stroke:#181818;stroke-width:0.5;" x1="542.3535" x2="552.3535" y1="131.73" y2="121.73"/><line style="stroke:#181818;stroke-width:0.5;" x1="364" x2="542.3535" y1="131.73" y2="131.73"/><line style="stroke:#181818;stroke-width:0.5;" x1="542.3535" x2="542.3535" y1="131.73" y2="168.0269"/><text fill="#000000" font-family="sans-serif" font-size="14" lengthAdjust="spacing" textLength="148.3535" x="379" y="154.7251">Learning Caf&#233; Switch</text></g><!--entity email--><g id="elem_email"><path d="M69.5949,446.7325 C72.0112,440.5358 77.8196,439.3308 81.9448,444.9458 C85.6589,436.9426 89.9643,435.9217 96.0012,442.7433 C100.3714,437.629 106.1886,438.2079 108.7231,444.7472 C113.3461,439.2965 118.7405,441.0339 121.4031,446.9367 C129.1196,449.1329 132.2877,456.1071 125.1433,461.9946 C131.1081,467.3068 130.9253,473.7386 122.9468,477.0113 C120.3222,485.2641 115.1269,486.0187 108.8444,480.8566 C106.9716,488.0236 101.7786,488.0971 97.092,483.7215 C91.9591,488.9398 84.8881,488.8238 82.5842,480.6555 C77.7291,486.8446 72.0033,483.6122 69.9313,477.7367 C61.4312,475.2099 60.7998,469.0627 66.0049,462.9072 C59.3642,457.0222 61.9472,449.4461 69.5949,446.7325 " fill="#F1F1F1" style="stroke:#181818;stroke-width:0.5;"/><text fill="#000000" font-family="sans-serif" font-size="14" lengthAdjust="spacing" textLength="38.8418" x="75.5" y="465.7251">Email</text></g><!--entity vle--><g id="elem_vle"><path d="M175.4657,449.0305 C180.0877,438.8312 188.5829,438.0614 194.9562,447.272 C198.1035,436.6325 207.608,437.2272 213.7961,443.9776 C219.1934,436.9829 227.2786,437.3498 231.206,445.6507 C235.7863,437.3256 241.0921,434.4406 248.3401,442.9328 C254.7635,432.4649 260.9817,432.0036 268.8253,441.4736 C274.08,434.8013 280.2843,435.1093 285.1424,441.9526 C291.1519,432.3768 296.8678,431.2944 304.1347,440.6941 C309.4404,430.9906 318.043,430.6911 323.0784,440.9507 C330.6187,431.2237 339.5542,432.498 344.4942,443.6215 C349.4714,434.8187 354.9733,435.6384 360.9815,442.5391 C367.1656,434.0005 376.2386,436.3835 380.2038,445.0222 C385.8838,435.3807 392.495,437.314 398.5696,444.594 C405.2549,436.4373 414.648,435.2762 419.1461,446.8724 C423.1354,438.599 430.0415,439.8985 434.6547,446.209 C438.62,447.9846 439.1907,450.7268 436.092,453.834 C440.0867,455.5897 440.3618,459.1155 437.4567,462.0213 C440.2983,464.416 440.1355,467.4246 436.9552,469.4106 C441.5362,472.4401 440.7918,476.3166 436.2476,478.6469 C430.4045,488.2243 422.4909,488.1068 416.0933,479.2533 C410.263,487.3125 403.7992,485.2074 399.3291,477.7808 C395.2913,486.9477 386.5833,487.4573 381.5982,478.7189 C376.4412,488.3949 367.3889,488.6033 362.4234,478.533 C357.1427,487.9209 350.8603,489.6062 343.8897,480.1995 C337.1794,488.6266 328.687,488.5807 323.093,478.9163 C317.8397,488.4577 309.7375,488.6669 303.8958,479.5207 C298.6228,486.538 292.6782,486.3145 287.5149,479.3918 C281.854,490.1362 274.4602,488.8357 268.0343,480.1591 C263.4192,489.1561 256.5914,488.8978 251.1425,480.9925 C243.5954,489.9531 237.3454,491.3358 230.6459,480.1309 C225.6832,488.5402 217.1818,487.8355 213.2838,479.0556 C208.6587,487.5843 199.6071,489.0538 194.2331,479.8606 C185.5469,490.0119 178.3128,486.3416 173.0213,476.2954 C170.014,474.8218 169.4142,471.6037 172.4895,469.6438 C167.8548,468.7323 167.0453,466.0492 169.6655,462.3347 C166.2104,459.0278 167.9029,455.3745 171.9634,454.1873 C170.9227,451.2695 172.0248,448.9046 175.4657,449.0305 " fill="#F1F1F1" style="stroke:#181818;stroke-width:0.5;"/><text fill="#000000" font-family="sans-serif" font-size="14" lengthAdjust="spacing" textLength="247.5225" x="180" y="465.7251">Virtual Learning Environment (VLE)</text></g><!--entity ordering--><g id="elem_ordering"><path d="M488.3891,445.7991 C492.0542,440.8215 497.4547,440.4902 500.8691,446.0949 C504.7198,440.4963 508.3704,441.5467 512.0736,446.2553 C516.7908,438.9673 522.237,438.0561 527.4155,445.7839 C530.2915,439.2483 536.1948,439.2195 539.9078,444.9301 C543.887,437.9216 548.5423,438.3996 552.9195,444.5361 C556.1924,439.3666 560.3098,438.9426 564.311,443.7005 C568.2456,437.0621 574.6258,437.4928 577.8667,444.3948 C581.544,437.4711 588.2293,436.9727 591.9751,444.327 C596.3379,438.6205 601.2953,438.4144 605.0153,445.0085 C608.0266,440.0583 613.0783,439.744 615.9901,445.1143 C620.0739,439.1893 626.5435,439.218 629.1599,446.5698 C632.4292,439.1037 639.1719,440.4592 642.6444,446.3649 C647.0719,438.6677 653.8927,440.2454 657.3722,447.3106 C660.1217,441.0008 666.0041,440.3766 669.7504,446.3022 C679.0594,446.6138 684.9612,453.5475 678.8931,462.5251 C682.8399,470.8648 678.1003,478.7818 668.5386,478.1953 C665.1093,484.1815 659.0206,484.7488 655.9384,477.8558 C652.8222,484.1971 647.6618,484.6887 643.475,478.9615 C639.6465,485.3764 635.3393,485.3398 630.5966,479.9597 C626.2637,486.833 621.5447,487.1728 616.6007,480.5956 C613.6205,486.0101 609.0472,487.0942 605.2064,481.4852 C600.8492,487.9123 595.7652,488.2838 591.7168,481.1773 C588.006,487.6222 582.716,487.9099 578.6132,481.5794 C574.7174,487.1637 570.9284,488.0636 566.1918,482.5177 C561.3557,488.2546 556.4148,489.1648 552.5293,481.5453 C548.9128,486.5606 542.5863,486.2734 539.55,480.8255 C535.2872,485.5303 528.9867,485.8731 526.6889,478.6981 C523.8947,484.5522 517.8368,485.2312 514.0605,479.7968 C509.4218,484.8007 504.1882,483.66 501.3634,477.6968 C497.087,484.9925 492.679,484.5411 487.8441,478.2526 C480.1855,474.1013 479.5257,468.0666 486.4834,462.6412 C477.9423,456.9631 479.0675,449.456 488.3891,445.7991 " fill="#F1F1F1" style="stroke:#181818;stroke-width:0.5;"/><text fill="#000000" font-family="sans-serif" font-size="14" lengthAdjust="spacing" textLength="167.9453" x="493" y="465.7251">Online Ordering System</text></g><!--entity databases--><g id="elem_databases"><path d="M719.5002,447.6595 C722.6997,441.1831 727.4941,441.7132 731.3283,447.0226 C734.5231,440.5975 738.6345,441.64 742.756,446.0447 C746.2229,439.8795 750.847,439.6777 755.0033,445.3302 C759.5501,439.536 763.201,440.7506 767.1456,445.9927 C769.1314,440.762 774.2405,439.5929 777.9453,444.083 C780.9886,438.0095 786.9499,436.815 790.6209,443.4572 C793.1658,439.0136 797.8298,438.7141 800.1366,443.6975 C803.3492,438.0928 808.6052,437.0995 811.9911,443.5266 C815.6107,437.5852 820.1692,437.5782 823.5,443.7999 C827.6646,437.2213 833.8874,438.4055 836.4205,445.3578 C839.7314,440.4323 843.235,439.3869 847.3405,444.4926 C851.5,438.2834 856.0653,438.8666 859.6357,445.0759 C862.9744,439.6286 867.9468,439.4134 870.7125,445.6205 C874.7572,440.6173 879.2943,442.4283 881.6571,447.4557 C890.4802,449.8623 892.6225,455.4123 886.9746,462.8254 C893.5067,469.9021 889.922,475.2396 882.108,477.5865 C878.618,482.8918 873.0553,484.188 869.477,477.6809 C867.3644,482.9473 863.1562,483.6331 859.6291,479.1028 C855.7343,485.9756 851.3911,487.1994 846.2551,480.3089 C844.5507,486.319 839.359,487.0616 835.8513,482.0041 C833.3922,487.8348 827.7858,488.4823 824.2174,483.1613 C822.3013,489.8917 816.908,490.6736 812.0766,486.3686 C808.9738,490.9169 804.2963,490.7855 801.3714,486.1609 C796.8825,492.5683 792.5943,491.8224 788.682,485.5824 C784.5565,489.8972 780.5121,488.8057 778.7569,483.2089 C775.0814,490.084 770.4321,488.6757 766.3655,483.6149 C762.486,488.2824 757.7758,486.6717 755.5333,481.7632 C750.9887,485.8852 747.0698,485.89 744.0449,480.0165 C740.6121,485.7614 735.8664,484.8555 733.1394,479.3334 C729.106,483.5323 723.63,482.6774 721.6301,476.9706 C711.5146,477.0649 707.2364,471.3086 710.4588,461.6667 C706.3115,452.9169 709.8828,447.5245 719.5002,447.6595 " fill="#F1F1F1" style="stroke:#181818;stroke-width:0.5;"/><text fill="#000000" font-family="sans-serif" font-size="14" lengthAdjust="spacing" textLength="147.123" x="726.5" y="465.7251">Academic Databases</text></g><!--entity uni_vlan--><g id="elem_uni_vlan"><polygon fill="#F1F1F1" points="422.5,301.73,432.5,291.73,637.9033,291.73,637.9033,328.0269,627.9033,338.0269,422.5,338.0269,422.5,301.73" style="stroke:#181818;stroke-width:0.5;"/><line style="stroke:#181818;stroke-width:0.5;" x1="627.9033" x2="637.9033" y1="301.73" y2="291.73"/><line style="stroke:#181818;stroke-width:0.5;" x1="422.5" x2="627.9033" y1="301.73" y2="301.73"/><line style="stroke:#181818;stroke-width:0.5;" x1="627.9033" x2="627.9033" y1="301.73" y2="338.0269"/><text fill="#000000" font-family="sans-serif" font-size="14" lengthAdjust="spacing" textLength="175.4033" x="437.5" y="324.7251">University Network VLAN</text></g><!--entity internet--><g id="elem_internet"><path d="M310.7718,300.6106 C313.8675,295.5766 317.7961,295.3114 321.6035,299.8012 C324.7115,293.6293 329.0558,293.73 333.2975,298.6007 C336.2135,293.2781 340.4813,292.8007 344.0613,297.916 C347.8098,292.9916 351.6667,291.891 355.654,297.657 C360.6972,292.3937 364.9282,292.5424 367.7707,299.7886 C371.8283,294.6211 376.4861,294.8956 380.1725,300.2271 C387.5104,303.0666 389.2477,310.4227 382.9329,315.6981 C388.7375,322.0997 388.583,327.1833 380.587,331.5416 C378.6328,337.7022 373.099,338.1102 369.3502,333.3958 C366.4104,341.6691 361.9431,342.7111 355.8192,336.3374 C354.8868,342.0536 350.1934,344.2366 345.3054,340.9641 C340.7073,345.1623 335.4243,344.6224 333.4621,338.0624 C326.9423,342.8978 323.7172,340.2637 321.5099,333.5855 C317.3016,338.0411 312.2343,337.5727 309.5627,331.792 C299.9047,330.8193 296.6838,323.5959 303.2799,316.1108 C297.1629,307.1285 300.2557,301.5535 310.7718,300.6106 " fill="#F1F1F1" style="stroke:#181818;stroke-width:0.5;"/><text fill="#000000" font-family="sans-serif" font-size="14" lengthAdjust="spacing" textLength="55.8359" x="316" y="319.7251">Internet</text></g><!--link wifi to ISP--><g id="link_wifi_ISP"><path d="M774.77,144.73 C836.27,144.73 907.48,144.73 933.76,144.73 " fill="none" id="wifi-to-ISP" style="stroke:#181818;stroke-width:1;"/><polygon fill="#181818" points="939.76,144.73,930.76,140.73,934.76,144.73,930.76,148.73,939.76,144.73" style="stroke:#181818;stroke-width:1;"/><text fill="#000000" font-family="sans-serif" font-size="13" lengthAdjust="spacing" textLength="129.1748" x="792.75" y="137.7969">Isolated Connection</text></g><!--link workstations to cafe_switch--><g id="link_workstations_cafe_switch"><path d="M329.41,144.73 C340.88,144.73 352.35,144.73 363.82,144.73 " fill="none" id="workstations-cafe_switch" style="stroke:#181818;stroke-width:1;"/></g><!--link printers to cafe_switch--><g id="link_printers_cafe_switch"><path d="M75.29,121.66 C85.31,90.41 108.33,36.7 151.5,20.73 C191.31,6 302.69,6 342.5,20.73 C391.2,38.75 427.65,90.86 445.59,121.49 " fill="none" id="printers-cafe_switch" style="stroke:#181818;stroke-width:1;"/></g><!--link cafe_switch to internet--><g id="link_cafe_switch_internet"><path d="M428.02,167.8 C410.47,182.06 389.07,201.98 375,223.73 C361.36,244.82 354.3818,266.7637 349.8318,285.8437 " fill="none" id="cafe_switch-to-internet" style="stroke:#181818;stroke-width:1;"/><polygon fill="#181818" points="348.44,291.68,354.4186,283.8533,349.5998,286.8164,346.6368,281.9976,348.44,291.68" style="stroke:#181818;stroke-width:1;"/><text fill="#000000" font-family="sans-serif" font-size="13" lengthAdjust="spacing" textLength="106.5391" x="376" y="236.7969">Secure Gateway</text></g><!--link internet to email--><g id="link_internet_email"><path d="M300.74,326.37 C258.8,338.17 194.82,360.24 148,394.73 C132.17,406.39 121.7082,418.892 112.1282,432.772 " fill="none" id="internet-to-email" style="stroke:#181818;stroke-width:1;"/><polygon fill="#181818" points="108.72,437.71,117.1243,432.5751,111.5602,433.595,110.5403,428.0308,108.72,437.71" style="stroke:#181818;stroke-width:1;"/><text fill="#000000" font-family="sans-serif" font-size="13" lengthAdjust="spacing" textLength="102.4829" x="188" y="382.7969">Secure Channel</text></g><!--link internet to vle--><g id="link_internet_vle"><path d="M337.84,337.91 C330.34,364.9 319.3643,404.3985 311.8443,431.4985 " fill="none" id="internet-to-vle" style="stroke:#181818;stroke-width:1;"/><polygon fill="#181818" points="310.24,437.28,316.5008,429.6772,311.5769,432.4621,308.7921,427.5381,310.24,437.28" style="stroke:#181818;stroke-width:1;"/><text fill="#000000" font-family="sans-serif" font-size="13" lengthAdjust="spacing" textLength="102.4829" x="329" y="382.7969">Secure Channel</text></g><!--link internet to ordering--><g id="link_internet_ordering"><path d="M369.04,337.96 C379.79,346.49 392.87,355.63 406,361.73 C420.08,368.27 425.74,363.6 440,369.73 C481.04,387.38 518.5179,413.567 545.0479,434.017 " fill="none" id="internet-to-ordering" style="stroke:#181818;stroke-width:1;"/><polygon fill="#181818" points="549.8,437.68,545.1139,429.0174,545.8399,434.6275,540.2299,435.3535,549.8,437.68" style="stroke:#181818;stroke-width:1;"/><text fill="#000000" font-family="sans-serif" font-size="13" lengthAdjust="spacing" textLength="102.4829" x="473" y="382.7969">Secure Channel</text></g><!--link internet to databases--><g id="link_internet_databases"><path d="M366.78,337.76 C377.73,346.93 391.6,356.61 406,361.73 C443.31,374.99 544.76,364.43 584,369.73 C633.68,376.44 647.57,375.82 694,394.73 C721.19,405.8 744.4691,420.0559 764.9491,434.1659 " fill="none" id="internet-to-databases" style="stroke:#181818;stroke-width:1;"/><polygon fill="#181818" points="769.89,437.57,764.7481,429.17,765.7726,434.7333,760.2093,435.7578,769.89,437.57" style="stroke:#181818;stroke-width:1;"/><text fill="#000000" font-family="sans-serif" font-size="13" lengthAdjust="spacing" textLength="102.4829" x="672" y="382.7969">Secure Channel</text></g><!--link cafe_switch to uni_vlan--><g id="link_cafe_switch_uni_vlan"><path d="M467.56,168.04 C481.37,200.26 504.3879,253.9545 518.1479,286.0845 " fill="none" id="cafe_switch-to-uni_vlan" style="stroke:#181818;stroke-width:1;"/><polygon fill="#181818" points="520.51,291.6,520.6439,281.7521,518.5416,287.0038,513.2899,284.9015,520.51,291.6" style="stroke:#181818;stroke-width:1;"/><text fill="#000000" font-family="sans-serif" font-size="13" lengthAdjust="spacing" textLength="113.6357" x="499" y="236.7969">Segmented VLAN</text></g><!--SRC=[ZP91Zjim34NtFWMHBjekV84k2WHkfWsGpWGmcYu7ZCmuH6Gga6G7GJ47wZbwiKgExMYIMOozCSqdwlEJxi1oH8iDR54TQcjQgGgZZOKF3uluPjan9B0ccAq8hR3KKE3ktrzOICVMI4FYP_0dW_28gGAtRhUQ5Vmszk0yUZRYPe0EJicF5BSidko5EGv1rWEx82mfoFa3moFvM6YyybhdafuhHSx1sd2K5M_b7Kza322tNEzz_XMMvHg-mD8PZPugA8m8gIYlvrzUQRXfVhEQFzvBk87A4tkrxrKetD6pw-EhcCGFoDz4HZlUIBzaGU1rE8KsRPN_C2vsKfBjEFWmAbGn2RD5WwnxEHI_qjI6hMzHmzH1Cbtuj5ajFlVdEatfgIVHB0HFjY8R3vNdS7tJasRub-9pXHKrOPBVqECM7LrcNerHx6Xgw9Tm5pfdVuQVo78xzulX2JJaXyc4igtmSwTHOjL1m3AQANHP31w2BFkOZDvbYT6GL-OaOLD6DgnBIQgr1D_3ofpmd4sP4UsjlNB57aDfVSy5Azz1ZJQ-0vril6TVznJOqPiUhUEGmzP4v_u3]--></g></svg>